<svg width="77" height="59" viewBox="0 0 77 59" fill="none" xmlns="http://www.w3.org/2000/svg">
<rect x="0.630005" y="0.2229" width="2.12169" height="1.59365" rx="0.796823" fill="#1E40AF"/>
<rect x="9.11682" y="0.2229" width="2.12169" height="1.59365" rx="0.796823" fill="#1E40AF"/>
<rect x="17.6036" y="0.2229" width="2.12169" height="1.59365" rx="0.796823" fill="#1E40AF"/>
<rect x="26.0902" y="0.2229" width="2.12169" height="1.59365" rx="0.796823" fill="#1E40AF"/>
<rect x="34.5771" y="0.2229" width="2.12169" height="1.59365" rx="0.796823" fill="#1E40AF"/>
<rect x="43.064" y="0.2229" width="2.12169" height="1.59365" rx="0.796823" fill="#1E40AF"/>
<rect x="51.5507" y="0.2229" width="2.12169" height="1.59365" rx="0.796823" fill="#1E40AF"/>
<rect x="60.0375" y="0.2229" width="2.12169" height="1.59365" rx="0.796823" fill="#1E40AF"/>
<rect x="68.524" y="0.2229" width="2.12169" height="1.59365" rx="0.796823" fill="#1E40AF"/>
<rect x="0.630127" y="6.59753" width="2.12169" height="1.59365" rx="0.796823" fill="#1E40AF"/>
<rect x="9.11682" y="6.59753" width="2.12169" height="1.59365" rx="0.796823" fill="#1E40AF"/>
<rect x="17.6036" y="6.59753" width="2.12169" height="1.59365" rx="0.796823" fill="#1E40AF"/>
<rect x="26.0902" y="6.59753" width="2.12169" height="1.59365" rx="0.796823" fill="#1E40AF"/>
<rect x="34.5771" y="6.59753" width="2.12169" height="1.59365" rx="0.796823" fill="#1E40AF"/>
<rect x="43.064" y="6.59753" width="2.12169" height="1.59365" rx="0.796823" fill="#1E40AF"/>
<rect x="51.5507" y="6.59753" width="2.12169" height="1.59365" rx="0.796823" fill="#1E40AF"/>
<rect x="60.0375" y="6.59753" width="2.12169" height="1.59365" rx="0.796823" fill="#1E40AF"/>
<rect x="68.524" y="6.59753" width="2.12169" height="1.59365" rx="0.796823" fill="#1E40AF"/>
<rect x="0.630127" y="12.972" width="2.12169" height="1.59365" rx="0.796823" fill="#1E40AF"/>
<rect x="9.11682" y="12.972" width="2.12169" height="1.59365" rx="0.796823" fill="#1E40AF"/>
<rect x="17.6036" y="12.972" width="2.12169" height="1.59365" rx="0.796823" fill="#1E40AF"/>
<rect x="26.0902" y="12.972" width="2.12169" height="1.59365" rx="0.796823" fill="#1E40AF"/>
<rect x="34.5771" y="12.972" width="2.12169" height="1.59365" rx="0.796823" fill="#1E40AF"/>
<rect x="43.064" y="12.972" width="2.12169" height="1.59365" rx="0.796823" fill="#1E40AF"/>
<rect x="51.5507" y="12.972" width="2.12169" height="1.59365" rx="0.796823" fill="#1E40AF"/>
<rect x="60.0375" y="12.972" width="2.12169" height="1.59365" rx="0.796823" fill="#1E40AF"/>
<rect x="68.524" y="12.972" width="2.12169" height="1.59365" rx="0.796823" fill="#1E40AF"/>
<rect x="0.630127" y="19.3467" width="2.12169" height="1.59365" rx="0.796823" fill="#1E40AF"/>
<rect x="9.11682" y="19.3467" width="2.12169" height="1.59365" rx="0.796823" fill="#1E40AF"/>
<rect x="17.6036" y="19.3467" width="2.12169" height="1.59365" rx="0.796823" fill="#1E40AF"/>
<rect x="26.0902" y="19.3467" width="2.12169" height="1.59365" rx="0.796823" fill="#1E40AF"/>
<rect x="34.5771" y="19.3467" width="2.12169" height="1.59365" rx="0.796823" fill="#1E40AF"/>
<rect x="43.064" y="19.3467" width="2.12169" height="1.59365" rx="0.796823" fill="#1E40AF"/>
<rect x="51.5507" y="19.3467" width="2.12169" height="1.59365" rx="0.796823" fill="#1E40AF"/>
<rect x="60.0375" y="19.3467" width="2.12169" height="1.59365" rx="0.796823" fill="#1E40AF"/>
<rect x="68.524" y="19.3467" width="2.12169" height="1.59365" rx="0.796823" fill="#1E40AF"/>
<rect x="0.630127" y="25.7212" width="2.12169" height="1.59365" rx="0.796823" fill="#1E40AF"/>
<rect x="9.11682" y="25.7212" width="2.12169" height="1.59365" rx="0.796823" fill="#1E40AF"/>
<rect x="17.6036" y="25.7212" width="2.12169" height="1.59365" rx="0.796823" fill="#1E40AF"/>
<rect x="26.0902" y="25.7212" width="2.12169" height="1.59365" rx="0.796823" fill="#1E40AF"/>
<rect x="34.5771" y="25.7212" width="2.12169" height="1.59365" rx="0.796823" fill="#1E40AF"/>
<rect x="43.064" y="25.7212" width="2.12169" height="1.59365" rx="0.796823" fill="#1E40AF"/>
<rect x="51.5507" y="25.7212" width="2.12169" height="1.59365" rx="0.796823" fill="#1E40AF"/>
<rect x="60.0375" y="25.7212" width="2.12169" height="1.59365" rx="0.796823" fill="#1E40AF"/>
<rect x="68.524" y="25.7212" width="2.12169" height="1.59365" rx="0.796823" fill="#1E40AF"/>
<rect x="0.630127" y="32.0958" width="2.12169" height="1.59365" rx="0.796823" fill="#1E40AF"/>
<rect x="9.11682" y="32.0958" width="2.12169" height="1.59365" rx="0.796823" fill="#1E40AF"/>
<rect x="17.6036" y="32.0958" width="2.12169" height="1.59365" rx="0.796823" fill="#1E40AF"/>
<rect x="26.0902" y="32.0958" width="2.12169" height="1.59365" rx="0.796823" fill="#1E40AF"/>
<rect x="34.5771" y="32.0958" width="2.12169" height="1.59365" rx="0.796823" fill="#1E40AF"/>
<rect x="43.064" y="32.0958" width="2.12169" height="1.59365" rx="0.796823" fill="#1E40AF"/>
<rect x="51.5507" y="32.0958" width="2.12169" height="1.59365" rx="0.796823" fill="#1E40AF"/>
<rect x="60.0375" y="32.0958" width="2.12169" height="1.59365" rx="0.796823" fill="#1E40AF"/>
<rect x="68.524" y="32.0958" width="2.12169" height="1.59365" rx="0.796823" fill="#1E40AF"/>
<rect x="0.630127" y="38.4705" width="2.12169" height="1.59365" rx="0.796823" fill="#1E40AF"/>
<rect x="0.630127" y="44.6184" width="2.12169" height="1.59365" rx="0.796823" fill="#1E40AF"/>
<rect x="0.630127" y="50.7665" width="2.12169" height="1.59365" rx="0.796823" fill="#1E40AF"/>
<rect x="0.630127" y="56.9146" width="2.12169" height="1.59365" rx="0.796823" fill="#1E40AF"/>
<rect x="9.11682" y="38.4705" width="2.12169" height="1.59365" rx="0.796823" fill="#1E40AF"/>
<rect x="9.11682" y="44.6184" width="2.12169" height="1.59365" rx="0.796823" fill="#1E40AF"/>
<rect x="9.11682" y="50.7665" width="2.12169" height="1.59365" rx="0.796823" fill="#1E40AF"/>
<rect x="9.11682" y="56.9146" width="2.12169" height="1.59365" rx="0.796823" fill="#1E40AF"/>
<rect x="17.6036" y="38.4705" width="2.12169" height="1.59365" rx="0.796823" fill="#1E40AF"/>
<rect x="17.6036" y="44.6184" width="2.12169" height="1.59365" rx="0.796823" fill="#1E40AF"/>
<rect x="17.6036" y="50.7665" width="2.12169" height="1.59365" rx="0.796823" fill="#1E40AF"/>
<rect x="17.6036" y="56.9146" width="2.12169" height="1.59365" rx="0.796823" fill="#1E40AF"/>
<rect x="26.0902" y="38.4705" width="2.12169" height="1.59365" rx="0.796823" fill="#1E40AF"/>
<rect x="26.0902" y="44.6184" width="2.12169" height="1.59365" rx="0.796823" fill="#1E40AF"/>
<rect x="26.0902" y="50.7665" width="2.12169" height="1.59365" rx="0.796823" fill="#1E40AF"/>
<rect x="26.0902" y="56.9146" width="2.12169" height="1.59365" rx="0.796823" fill="#1E40AF"/>
<rect x="34.5771" y="38.4705" width="2.12169" height="1.59365" rx="0.796823" fill="#1E40AF"/>
<rect x="34.5771" y="44.6184" width="2.12169" height="1.59365" rx="0.796823" fill="#1E40AF"/>
<rect x="34.5771" y="50.7665" width="2.12169" height="1.59365" rx="0.796823" fill="#1E40AF"/>
<rect x="34.5771" y="56.9146" width="2.12169" height="1.59365" rx="0.796823" fill="#1E40AF"/>
<rect x="43.064" y="38.4705" width="2.12169" height="1.59365" rx="0.796823" fill="#1E40AF"/>
<rect x="43.064" y="44.6184" width="2.12169" height="1.59365" rx="0.796823" fill="#1E40AF"/>
<rect x="43.064" y="50.7665" width="2.12169" height="1.59365" rx="0.796823" fill="#1E40AF"/>
<rect x="43.064" y="56.9146" width="2.12169" height="1.59365" rx="0.796823" fill="#1E40AF"/>
<rect x="51.5507" y="38.4705" width="2.12169" height="1.59365" rx="0.796823" fill="#1E40AF"/>
<rect x="51.5507" y="44.6184" width="2.12169" height="1.59365" rx="0.796823" fill="#1E40AF"/>
<rect x="51.5507" y="50.7665" width="2.12169" height="1.59365" rx="0.796823" fill="#1E40AF"/>
<rect x="51.5507" y="56.9146" width="2.12169" height="1.59365" rx="0.796823" fill="#1E40AF"/>
<rect x="60.0375" y="38.4705" width="2.12169" height="1.59365" rx="0.796823" fill="#1E40AF"/>
<rect x="60.0375" y="44.6184" width="2.12169" height="1.59365" rx="0.796823" fill="#1E40AF"/>
<rect x="60.0375" y="50.7665" width="2.12169" height="1.59365" rx="0.796823" fill="#1E40AF"/>
<rect x="60.0375" y="56.9146" width="2.12169" height="1.59365" rx="0.796823" fill="#1E40AF"/>
<rect x="68.524" y="38.4705" width="2.12169" height="1.59365" rx="0.796823" fill="#1E40AF"/>
<rect x="68.524" y="44.6184" width="2.12169" height="1.59365" rx="0.796823" fill="#1E40AF"/>
<rect x="68.524" y="50.7665" width="2.12169" height="1.59365" rx="0.796823" fill="#1E40AF"/>
<rect x="68.524" y="56.9146" width="2.12169" height="1.59365" rx="0.796823" fill="#1E40AF"/>
</svg>
